<svg xmlns="http://www.w3.org/2000/svg" xmlns:xlink="http://www.w3.org/1999/xlink" version="1.1" id="Layer_1" x="0px" y="0px" width="180" height="38" viewBox="340 370 600 250" enable-background="new 0 0 1024 1024" xml:space="preserve">
<path fill="#000000" opacity="1.000000" stroke="none" d=" M195.719360,579.808716   C178.121124,588.947632 160.843033,597.971741 142.403427,604.347656   C135.527771,606.724976 128.251190,607.634155 120.836472,606.342224   C112.492836,604.888489 105.944801,595.215942 107.358131,585.240479   C109.335648,571.282898 115.732124,559.044250 123.145607,547.311646   C125.541512,543.519897 128.317856,539.959961 131.050262,536.393677   C132.105453,535.016418 133.121811,533.241333 135.512863,533.713196   C137.601974,536.838074 137.222794,540.068848 135.610046,543.125793   C132.305664,549.389221 129.828506,555.759216 130.149445,563.072266   C130.288712,566.245544 128.055420,568.975830 126.933685,571.920715   C125.320541,576.155640 123.419716,580.708069 126.994225,584.622192   C130.500656,588.461731 135.143677,589.109497 140.314514,587.870789   C154.091095,584.570435 166.518280,578.096863 178.756134,571.394653   C211.214233,553.618713 240.596466,531.613647 266.946808,505.606171   C281.996613,490.752167 294.449402,473.972198 304.133606,455.149689   C306.209869,451.114166 307.665680,446.925964 308.289185,442.419250   C309.249054,435.481964 305.380493,430.659637 298.358215,430.394012   C293.499512,430.210297 288.802551,431.467407 284.066833,432.340851   C273.320221,434.322937 262.165466,434.217529 251.897888,438.650146   C250.521469,439.244324 249.219849,439.175781 248.462128,437.712189   C247.587448,436.022705 247.102936,434.163971 248.612976,432.619843   C249.518738,431.693665 250.725327,430.978760 251.916306,430.427032   C265.649292,424.065216 279.369995,417.625610 294.227386,414.245178   C300.381683,412.844940 306.574615,411.834930 312.965118,413.480621   C323.637329,416.228973 329.731232,425.508820 328.093414,436.440338   C326.450775,447.404144 321.305664,456.815247 315.990387,466.281891   C305.629608,484.734772 291.968689,500.602356 277.712891,516.019165   C275.543671,518.364929 274.472961,520.492432 274.689423,523.907593   C275.162537,531.372986 275.086639,538.893311 274.839844,546.378113   C274.622589,552.967224 271.998138,555.135071 265.505859,555.410461   C255.191666,555.848022 244.885666,556.635559 234.555222,556.103027   C232.167068,555.979919 230.443680,557.172302 228.631516,558.354248   C217.764297,565.441650 206.892822,572.522583 195.719360,579.808716  z" data-index="0"/>
<path fill="#000000" opacity="1.000000" stroke="none" d=" M274.962006,479.777527   C274.770721,492.048370 266.649109,498.924347 254.875168,498.606934   C236.563416,498.113190 218.230606,498.383423 199.906708,498.363190   C183.581284,498.345184 167.254547,498.262238 150.931198,498.450989   C146.401978,498.503357 144.644379,496.915955 144.755997,492.361877   C144.976364,483.371368 144.727249,474.370056 144.889252,465.377136   C145.033951,457.343445 147.663162,454.504425 155.654785,454.144348   C162.635773,453.829803 169.644669,453.953308 176.635773,454.116608   C180.450272,454.205719 182.236328,452.786469 181.964981,448.877441   C181.850327,447.225555 181.939911,445.538025 182.133881,443.889893   C183.027130,436.300232 185.900833,433.730133 193.540573,433.710144   C205.201553,433.679626 216.862686,433.685242 228.523697,433.705841   C236.221283,433.719452 239.774155,437.113800 240.187485,444.807892   C240.258865,446.136932 240.326797,447.485901 240.185272,448.802948   C239.763733,452.725952 241.452591,454.131836 245.354828,454.003632   C251.676834,453.795959 258.014435,453.896484 264.341248,454.045135   C271.915588,454.223053 274.911316,457.306854 274.990326,464.816833   C275.041168,469.646912 274.978943,474.478180 274.962006,479.777527  M215.443878,446.079010   C209.958237,446.113708 204.472366,446.194611 198.987061,446.164825   C195.935272,446.148254 194.287857,447.481812 194.222809,450.582581   C194.151443,453.985565 196.288254,454.695374 199.138321,454.682434   C207.283691,454.645386 215.429428,454.648468 223.574844,454.681274   C225.999481,454.691071 228.144531,454.004272 228.276108,451.349579   C228.413223,448.583313 226.835922,446.546234 223.889923,446.260345   C221.416992,446.020355 218.909653,446.134949 215.443878,446.079010  z" data-index="1"/>
<path fill="#000000" opacity="1.000000" stroke="none" d=" M699.873291,536.750366   C682.963501,560.945496 647.476135,565.560608 624.453979,546.691772   C615.163696,539.077515 610.178101,528.835999 608.572754,517.032166   C606.762878,503.724365 606.662781,490.539093 612.202942,477.855682   C621.065186,457.566589 643.348083,445.345459 665.229370,448.896362   C689.197083,452.785919 706.011230,470.441772 708.448669,493.332184   C710.085144,508.700470 708.496643,523.166687 699.873291,536.750366  M638.038208,477.548492   C634.180908,482.920502 632.128845,488.843536 631.090515,495.450134   C630.108582,501.698120 630.926636,507.707886 631.300476,513.828857   C632.050476,526.110046 641.950439,537.223145 653.514771,538.651428   C667.409790,540.367615 679.660095,533.299988 683.502563,520.842224   C687.072754,509.267334 687.078674,497.464050 683.212769,485.980133   C676.434692,465.845947 652.680664,461.171661 638.038208,477.548492  z" data-index="2" style="opacity: 1;"/>
<path fill="#000000" opacity="1.000000" stroke="none" d=" M97.665878,541.118225   C87.534088,509.630371 89.154083,479.087372 104.490570,450.265228   C123.513206,414.515625 154.040771,393.151276 193.679688,386.135376   C224.628998,380.657532 253.002380,389.295837 278.911285,406.557526   C279.865112,407.192993 280.926697,407.774139 281.231689,409.524933   C276.510010,411.117493 272.418549,414.117584 267.994446,416.527039   C264.428406,418.469177 260.788574,418.636810 257.023438,416.857666   C242.861145,410.165710 227.853958,406.510864 212.300980,405.506134   C200.027924,404.713318 188.191650,407.559540 176.718887,411.771790   C137.363770,426.221039 116.054169,454.991882 110.525475,495.963959   C108.759819,509.048889 110.838417,521.980469 115.363091,534.250916   C117.810371,540.887695 116.919495,546.099854 112.856812,551.381409   C110.761299,554.105591 108.915092,557.021545 106.554016,560.431763   C101.861336,554.387024 100.261375,547.729431 97.665878,541.118225  z" data-index="3"/>
<path fill="#000000" opacity="1.000000" stroke="none" d=" M853.785156,511.578003   C854.920654,522.174561 853.458679,531.892578 848.894470,541.102356   C839.943176,559.164368 814.740540,564.376221 798.536194,550.164612   C799.298645,556.457275 795.513733,556.459595 791.168762,556.416931   C776.698242,556.274719 776.696289,556.372253 776.695984,542.109680   C776.695374,512.127136 776.800537,482.143921 776.593201,452.162842   C776.558533,447.146179 777.976135,445.111450 783.084534,445.664978   C786.212341,446.003906 789.424683,445.930969 792.567932,445.669312   C796.860718,445.311890 798.502258,446.837708 798.376404,451.312683   C798.100281,461.132477 798.294373,470.965454 798.296387,480.793060   C798.296753,482.568665 798.296448,484.344299 798.296448,486.774445   C803.340698,483.130280 807.781982,479.924866 813.264893,478.756073   C834.222717,474.288483 851.071777,486.651428 853.339539,508.167419   C853.444031,509.158722 853.559998,510.148804 853.785156,511.578003  M802.677063,502.202362   C797.498779,508.932373 797.316284,516.626282 798.328857,524.566528   C799.422546,533.142273 804.800842,538.894775 812.474976,539.633972   C821.426147,540.496155 828.728088,535.782654 831.381470,527.459534   C832.824402,522.933411 833.162476,518.247009 832.500977,513.635559   C831.495850,506.627289 829.021912,500.336792 821.561279,497.644897   C814.607300,495.135895 808.491272,496.624420 802.677063,502.202362  z" data-index="4"/>
<path fill="#000000" opacity="1.000000" stroke="none" d=" M519.646606,462.002747   C519.647766,458.004944 519.817566,454.496063 519.605164,451.010468   C519.376404,447.256927 520.567566,445.415924 524.646851,445.686890   C528.461243,445.940277 532.317749,445.904175 536.135437,445.667572   C540.084595,445.422791 541.407898,447.052094 541.335754,450.912933   C541.155273,460.572449 541.275513,470.237549 541.275085,479.900421   C541.275024,481.713928 541.275085,483.527405 541.275085,485.238037   C543.455872,486.106140 544.380615,484.549133 545.527405,483.801422   C567.367615,469.561768 592.734131,481.363708 596.369629,507.243500   C597.716370,516.830566 597.332947,526.104431 594.385010,535.292908   C586.307251,560.471008 556.291748,564.324768 542.729553,550.875488   C542.536987,550.684448 542.146790,550.692688 541.468018,550.499512   C542.139648,556.083862 538.809631,556.462891 534.465332,556.417603   C519.649719,556.262939 519.648926,556.380188 519.648743,541.471130   C519.648438,515.148071 519.647644,488.825012 519.646606,462.002747  M567.957581,536.548706   C576.527222,530.956604 577.679565,512.982483 572.434021,504.430267   C568.938904,498.731995 563.692017,496.263306 557.331482,496.479980   C550.654602,496.707520 545.552612,500.081299 542.823669,506.244659   C540.859619,510.680603 540.058594,515.536560 540.466003,520.382019   C541.890503,537.325806 553.528381,544.451599 567.957581,536.548706  z" data-index="5"/>
<path fill="#000000" opacity="1.000000" stroke="none" d=" M304.991394,578.928345   C291.430054,595.113953 274.715515,606.089172 255.686035,614.205139   C242.311249,619.909363 228.506104,623.015503 214.201279,623.634216   C193.934708,624.510620 174.498474,620.656311 156.419952,611.055908   C155.732834,610.691040 155.220795,609.996521 154.045059,608.925232   C160.942703,605.213623 167.407379,601.676636 173.952911,598.296143   C174.669159,597.926208 175.909454,598.284424 176.807007,598.593933   C200.438843,606.743774 224.125397,605.735962 247.258606,597.409363   C273.884827,587.825562 291.657257,568.677490 301.536011,542.347534   C305.913635,530.679749 310.955841,518.610474 309.411377,506.080078   C307.839844,493.330017 312.925323,483.586639 318.989716,473.633484   C320.183441,471.674225 321.314362,469.676636 322.534424,467.593994   C333.917969,489.047607 334.231232,540.626465 304.991394,578.928345  z" data-index="6"/>
<path fill="#000000" opacity="1.000000" stroke="none" d=" M508.327576,519.905090   C507.695923,549.042175 482.717896,560.939392 461.533813,557.919983   C445.048706,555.570312 433.277618,547.379944 429.286591,530.432678   C426.694702,519.426697 427.760162,508.545898 432.432678,498.257935   C438.411987,485.092560 456.712311,475.827820 471.731659,477.953400   C478.870758,478.963745 485.766083,480.662231 491.922485,484.662476   C504.567352,492.878784 508.837494,505.019623 508.327576,519.905090  M453.690918,503.277496   C449.928406,508.762421 448.955231,514.971375 449.442871,521.386719   C450.264709,532.197632 456.328766,539.118103 465.102264,539.696045   C476.923615,540.474609 484.023193,535.540161 486.260986,524.627502   C486.853699,521.737000 486.727142,518.657715 486.629944,515.674988   C486.366638,507.595947 483.430359,500.825134 475.490112,497.756989   C467.500488,494.669861 460.097839,496.032349 453.690918,503.277496  z" data-index="7"/>
<path fill="#000000" opacity="1.000000" stroke="none" d=" M166.015015,555.928101   C161.688904,555.858582 157.844238,555.978333 154.032333,555.679749   C148.164398,555.220093 145.028992,552.302368 144.904480,546.529968   C144.671021,535.706421 144.794113,524.872437 144.931747,514.044861   C144.990021,509.459229 147.588455,506.945099 152.200394,506.921997   C165.028702,506.857697 177.857910,506.948273 190.685883,506.855713   C194.054504,506.831360 195.685303,508.046875 195.369827,511.548767   C195.235855,513.035706 195.366577,514.545654 195.360092,516.045044   C195.346725,519.131226 196.847504,520.636292 199.960953,520.612732   C206.616455,520.562378 213.272858,520.603943 219.927795,520.519775   C223.417816,520.475586 223.659470,517.971252 223.752457,515.280273   C224.040802,506.937775 224.075577,506.952698 232.474060,506.924408   C238.805038,506.903076 245.136246,506.787231 251.466522,506.832092   C253.177917,506.844208 255.193802,506.117523 256.651672,508.346039   C253.382996,512.770142 248.927429,515.960266 244.439240,519.002197   C228.870255,529.554199 213.061569,539.758118 197.637543,550.515259   C192.004272,554.444031 186.185501,556.156372 179.505402,555.937073   C175.178558,555.795044 170.842865,555.922974 166.015015,555.928101  z" data-index="8"/>
<path fill="#000000" opacity="1.000000" stroke="none" d=" M906.434448,498.406952   C895.937378,498.095581 896.700806,499.800140 896.667236,488.924072   C896.663635,487.758270 896.788818,486.578125 896.650024,485.429291   C896.186157,481.589844 897.773560,480.083862 901.676331,480.013519   C908.774963,479.885651 908.771729,479.710266 908.801331,472.324493   C908.841370,462.321991 908.841370,462.321930 918.778564,460.417725   C931.256653,458.026581 931.256592,458.026642 931.281189,470.595886   C931.281799,470.928986 931.283264,471.262054 931.283752,471.595154   C931.296814,480.021454 931.296814,480.016296 939.625793,480.047760   C941.290466,480.054047 942.955017,480.109406 944.619324,480.154266   C947.044678,480.219635 948.314453,481.395569 948.197388,483.899048   C948.181885,484.230957 948.204041,484.565125 948.218567,484.897858   C948.786682,497.894043 948.788818,497.998413 935.908875,498.240173   C932.485657,498.304443 931.170227,499.377136 931.235535,502.869019   C931.403625,511.859283 931.251587,520.854980 931.317993,529.847839   C931.380859,538.356140 934.921631,541.203796 943.224792,539.703918   C944.648743,539.446716 946.065125,538.563904 948.230225,539.626160   C948.230225,544.246338 948.282166,549.196411 948.205994,554.144531   C948.172974,556.282227 946.364685,556.781616 944.748657,557.116638   C942.310913,557.621826 939.837708,558.083435 937.359009,558.242126   C918.480408,559.450684 908.675476,550.069824 908.778748,531.040527   C908.828491,521.880981 908.849426,512.720642 908.786194,503.561401   C908.773376,501.704315 909.505066,499.397583 906.434448,498.406952  z" data-index="9"/>
<path fill="#000000" opacity="1.000000" stroke="none" d=" M367.121155,557.232666   C365.313995,556.793091 364.036926,556.100403 364.011658,554.583923   C363.915802,548.834045 363.973053,543.081543 363.973053,537.731812   C366.001465,536.517395 367.175049,537.416504 368.385437,537.847412   C384.020050,543.412842 393.513000,536.850769 393.618988,520.168701   C393.742645,500.700745 393.657867,481.231415 393.653625,461.762695   C393.651001,449.704132 393.643219,449.635864 405.847290,449.727570   C417.853760,449.817780 416.277008,448.090332 416.310394,460.415100   C416.363098,479.883331 416.281219,499.352081 416.221649,518.820435   C416.207367,523.485352 415.595032,528.089417 414.512146,532.633057   C410.557190,549.227722 399.995667,557.785950 382.953979,558.306091   C377.779633,558.463989 372.664398,558.066040 367.121155,557.232666  z" data-index="10"/>
<path fill="#000000" opacity="1.000000" stroke="none" d=" M747.430908,503.425964   C743.012878,507.977142 741.240295,513.118713 741.315796,519.096313   C741.444031,529.260864 741.360107,539.428162 741.346069,549.594299   C741.336792,556.323425 741.321777,556.327209 734.375549,556.341553   C731.209045,556.348145 728.039917,556.254150 724.876892,556.357361   C722.007324,556.450928 720.626587,555.434326 720.636292,552.336670   C720.707275,529.671509 720.712769,507.005829 720.639893,484.340668   C720.630188,481.338379 721.840759,480.059418 724.735474,480.074005   C727.734924,480.089172 730.751404,480.238861 733.730469,479.981781   C738.607483,479.561005 742.486572,480.106964 741.353210,487.968964   C747.274231,482.140625 752.868408,478.655853 760.059082,478.313995   C766.490540,478.008240 767.340820,478.510956 767.337341,484.872437   C767.335205,488.702332 767.251953,492.532623 767.152527,496.361359   C767.140686,496.817413 766.796875,497.264832 766.394592,498.220673   C759.561523,497.116699 752.959351,497.862366 747.430908,503.425964  z" data-index="11"/>
<path fill="#000000" opacity="1.000000" stroke="none" d=" M887.349854,494.008759   C887.349670,512.635376 887.352600,530.764038 887.346924,548.892761   C887.344604,556.358582 887.336243,556.359619 879.643982,556.358093   C876.816589,556.357605 873.972778,556.156372 871.165649,556.393005   C867.004395,556.743835 865.657654,555.000977 865.686218,550.921082   C865.825806,530.963867 865.678223,511.004852 865.771240,491.047089   C865.827271,479.017792 863.636536,480.036011 877.006592,480.038208   C889.370728,480.040253 887.107849,479.473328 887.345459,490.517120   C887.366882,491.514587 887.349060,492.512939 887.349854,494.008759  z" data-index="12"/>
<path fill="#000000" opacity="1.000000" stroke="none" d=" M872.888428,467.539673   C865.968750,464.533813 863.326477,459.866089 864.752747,453.753265   C865.902283,448.826447 871.194885,444.990967 876.735840,445.069275   C882.953918,445.157135 887.665955,448.884247 888.942627,454.724548   C890.776611,463.114410 883.120117,469.430847 872.888428,467.539673  z" data-index="13"/>
<path fill="#000000" opacity="1.000000" stroke="none" d=" M214.742538,508.314880   C215.331619,510.727295 214.438858,512.072205 212.439911,512.147522   C210.027328,512.238403 207.193237,513.265625 205.322327,511.206146   C203.807541,509.538757 204.503479,507.493530 206.869965,507.144867   C209.410065,506.770660 212.159088,506.019257 214.742538,508.314880  z" data-index="14"/>
</svg>